<svg width="14" height="14" viewBox="0 0 14 14" fill="none" xmlns="http://www.w3.org/2000/svg">
<rect width="14" height="14" rx="3" fill="#FFD447"/>
<g clip-path="url(#clip0_671_2650)">
<path d="M6.31191 4.3368C6.57303 3.73464 7.42697 3.73464 7.68809 4.3368L7.86969 4.75558C8.08704 5.25681 8.55972 5.60023 9.10358 5.65206L9.55799 5.69536C10.2114 5.75762 10.4752 6.56977 9.98325 7.00419L9.64108 7.30631C9.23155 7.66791 9.051 8.22358 9.16978 8.75684L9.26901 9.20238C9.41171 9.84302 8.72085 10.345 8.15566 10.0113L7.76259 9.77922C7.29213 9.50147 6.70787 9.50147 6.23741 9.77922L5.84434 10.0113C5.27915 10.345 4.58829 9.84302 4.73099 9.20238L4.83022 8.75684C4.949 8.22358 4.76845 7.66791 4.35892 7.30631L4.01675 7.00419C3.52475 6.56977 3.78864 5.75762 4.44201 5.69536L4.89642 5.65206C5.44028 5.60023 5.91296 5.25681 6.13031 4.75558L6.31191 4.3368Z" fill="white"/>
</g>
<defs>
<clipPath id="clip0_671_2650">
<rect width="8" height="8" fill="white" transform="translate(3 3)"/>
</clipPath>
</defs>
</svg>
