<svg width="74" height="14" viewBox="0 0 74 14" fill="none" xmlns="http://www.w3.org/2000/svg">
<rect width="14" height="14" rx="3" fill="#FFD447"/>
<g clip-path="url(#clip0_88_697)">
<path d="M6.31188 4.3368C6.573 3.73464 7.42694 3.73464 7.68806 4.3368L7.86966 4.75558C8.08701 5.25681 8.55969 5.60023 9.10355 5.65206L9.55796 5.69536C10.2113 5.75762 10.4752 6.56977 9.98322 7.00419L9.64105 7.30631C9.23152 7.66791 9.05097 8.22358 9.16975 8.75684L9.26898 9.20238C9.41168 9.84302 8.72082 10.345 8.15563 10.0113L7.76256 9.77922C7.2921 9.50147 6.70784 9.50147 6.23738 9.77922L5.84431 10.0113C5.27912 10.345 4.58826 9.84302 4.73096 9.20238L4.83019 8.75684C4.94897 8.22358 4.76842 7.66791 4.35889 7.30631L4.01672 7.00419C3.52472 6.56977 3.7886 5.75762 4.44198 5.69536L4.89639 5.65206C5.44025 5.60023 5.91293 5.25681 6.13028 4.75558L6.31188 4.3368Z" fill="white"/>
</g>
<rect x="15" width="14" height="14" rx="3" fill="#FFD447"/>
<g clip-path="url(#clip1_88_697)">
<path d="M21.3119 4.3368C21.573 3.73464 22.4269 3.73464 22.6881 4.3368L22.8697 4.75558C23.087 5.25681 23.5597 5.60023 24.1036 5.65206L24.558 5.69536C25.2113 5.75762 25.4752 6.56977 24.9832 7.00419L24.6411 7.30631C24.2315 7.66791 24.051 8.22358 24.1697 8.75684L24.269 9.20238C24.4117 9.84302 23.7208 10.345 23.1556 10.0113L22.7626 9.77922C22.2921 9.50147 21.7078 9.50147 21.2374 9.77922L20.8443 10.0113C20.2791 10.345 19.5883 9.84302 19.731 9.20238L19.8302 8.75684C19.949 8.22358 19.7684 7.66791 19.3589 7.30631L19.0167 7.00419C18.5247 6.56977 18.7886 5.75762 19.442 5.69536L19.8964 5.65206C20.4403 5.60023 20.9129 5.25681 21.1303 4.75558L21.3119 4.3368Z" fill="white"/>
</g>
<rect x="30" width="14" height="14" rx="3" fill="#FFD447"/>
<g clip-path="url(#clip2_88_697)">
<path d="M36.3119 4.3368C36.573 3.73464 37.4269 3.73464 37.6881 4.3368L37.8697 4.75558C38.087 5.25681 38.5597 5.60023 39.1036 5.65206L39.558 5.69536C40.2113 5.75762 40.4752 6.56977 39.9832 7.00419L39.6411 7.30631C39.2315 7.66791 39.051 8.22358 39.1697 8.75684L39.269 9.20238C39.4117 9.84302 38.7208 10.345 38.1556 10.0113L37.7626 9.77922C37.2921 9.50147 36.7078 9.50147 36.2374 9.77922L35.8443 10.0113C35.2791 10.345 34.5883 9.84302 34.731 9.20238L34.8302 8.75684C34.949 8.22358 34.7684 7.66791 34.3589 7.30631L34.0167 7.00419C33.5247 6.56977 33.7886 5.75762 34.442 5.69536L34.8964 5.65206C35.4403 5.60023 35.9129 5.25681 36.1303 4.75558L36.3119 4.3368Z" fill="white"/>
</g>
<rect x="45" width="14" height="14" rx="3" fill="#EBEBEC" fill-opacity="0.75"/>
<g clip-path="url(#clip3_88_697)">
<path d="M51.3119 4.3368C51.573 3.73464 52.4269 3.73464 52.6881 4.3368L52.8697 4.75558C53.087 5.25681 53.5597 5.60023 54.1036 5.65206L54.558 5.69536C55.2113 5.75762 55.4752 6.56977 54.9832 7.00419L54.6411 7.30631C54.2315 7.66791 54.051 8.22358 54.1697 8.75684L54.269 9.20238C54.4117 9.84302 53.7208 10.345 53.1556 10.0113L52.7626 9.77922C52.2921 9.50147 51.7078 9.50147 51.2374 9.77922L50.8443 10.0113C50.2791 10.345 49.5883 9.84302 49.731 9.20238L49.8302 8.75684C49.949 8.22358 49.7684 7.66791 49.3589 7.30631L49.0167 7.00419C48.5247 6.56977 48.7886 5.75762 49.442 5.69536L49.8964 5.65206C50.4403 5.60023 50.9129 5.25681 51.1303 4.75558L51.3119 4.3368Z" fill="white"/>
</g>
<rect x="60" width="14" height="14" rx="3" fill="#EBEBEC" fill-opacity="0.75"/>
<g clip-path="url(#clip4_88_697)">
<path d="M66.3119 4.3368C66.573 3.73464 67.427 3.73464 67.6881 4.3368L67.8697 4.75558C68.087 5.25681 68.5597 5.60023 69.1036 5.65206L69.558 5.69536C70.2114 5.75762 70.4752 6.56977 69.9833 7.00419L69.6411 7.30631C69.2315 7.66791 69.051 8.22358 69.1698 8.75684L69.269 9.20238C69.4117 9.84302 68.7208 10.345 68.1557 10.0113L67.7626 9.77922C67.2921 9.50147 66.7079 9.50147 66.2374 9.77922L65.8443 10.0113C65.2792 10.345 64.5883 9.84302 64.731 9.20238L64.8302 8.75684C64.949 8.22358 64.7685 7.66791 64.3589 7.30631L64.0167 7.00419C63.5248 6.56977 63.7886 5.75762 64.442 5.69536L64.8964 5.65206C65.4403 5.60023 65.913 5.25681 66.1303 4.75558L66.3119 4.3368Z" fill="white"/>
</g>
<defs>
<clipPath id="clip0_88_697">
<rect width="8" height="8" fill="white" transform="translate(3 3)"/>
</clipPath>
<clipPath id="clip1_88_697">
<rect width="8" height="8" fill="white" transform="translate(18 3)"/>
</clipPath>
<clipPath id="clip2_88_697">
<rect width="8" height="8" fill="white" transform="translate(33 3)"/>
</clipPath>
<clipPath id="clip3_88_697">
<rect width="8" height="8" fill="white" transform="translate(48 3)"/>
</clipPath>
<clipPath id="clip4_88_697">
<rect width="8" height="8" fill="white" transform="translate(63 3)"/>
</clipPath>
</defs>
</svg>
